<?xml version="1.0" standalone="no"?>
<!DOCTYPE svg PUBLIC "-//W3C//DTD SVG 20010904//EN"
 "http://www.w3.org/TR/2001/REC-SVG-20010904/DTD/svg10.dtd">
<svg version="1.0" xmlns="http://www.w3.org/2000/svg"
 width="500.000000pt" height="461.000000pt" viewBox="0 0 500.000000 461.000000"
 preserveAspectRatio="xMidYMid meet">

<g transform="translate(0.000000,461.000000) scale(0.100000,-0.100000)"
fill="#000000" stroke="none">
<path d="M1808 3443 c7 -3 16 -2 19 1 4 3 -2 6 -13 5 -11 0 -14 -3 -6 -6z"/>
<path d="M1840 3437 c-1 -7 -24 -23 -53 -36 -29 -14 -57 -30 -62 -37 -6 -6
-54 -34 -107 -62 -53 -28 -94 -52 -92 -55 2 -2 -25 -19 -61 -37 -36 -18 -65
-37 -65 -41 0 -5 -7 -9 -15 -9 -41 0 -34 -107 11 -190 35 -64 108 -140 156
-163 48 -22 110 -22 157 2 52 27 156 141 190 209 80 160 90 324 25 389 -14 14
-31 22 -40 19 -8 -3 -13 -2 -10 3 3 5 -3 11 -14 14 -11 3 -20 0 -20 -6z"/>
<path d="M2915 3440 c44 -4 57 -7 35 -9 -33 -3 -33 -3 -10 -11 l25 -8 -28 -1
c-16 -1 -40 -10 -54 -21 -14 -11 -33 -20 -42 -20 -9 0 -31 -9 -49 -20 -18 -11
-39 -20 -47 -20 -15 0 -122 -55 -140 -71 -5 -5 -17 -9 -27 -9 -10 0 -18 -4
-18 -8 0 -4 -17 -14 -37 -21 -20 -8 -46 -22 -57 -32 -11 -11 -30 -19 -43 -19
-13 0 -23 -4 -23 -9 0 -5 -13 -12 -29 -16 -16 -3 -55 -22 -88 -42 -73 -44
-129 -70 -170 -78 -21 -4 -33 -13 -33 -23 0 -14 -2 -14 -9 -3 -7 11 -9 11 -14
0 -4 -11 -6 -11 -6 -1 -1 7 6 24 15 38 9 13 15 27 12 29 -8 9 -58 -96 -51
-107 4 -7 1 -8 -7 -3 -10 6 -12 4 -7 -9 4 -9 3 -15 -3 -11 -22 14 -104 -226
-132 -390 -17 -100 -19 -146 -15 -275 13 -367 147 -684 400 -946 126 -132 174
-164 240 -164 63 0 110 33 241 171 159 167 295 400 304 518 14 191 -151 338
-340 303 -108 -20 -201 -72 -298 -167 -90 -89 -116 -100 -156 -70 -10 8 -22
15 -25 15 -13 0 -40 -122 -43 -200 -4 -90 10 -166 48 -260 32 -79 23 -77 -14
3 -81 173 -81 347 1 516 44 88 151 199 237 244 123 64 148 68 462 76 269 7
289 9 350 32 226 85 381 307 380 543 -1 254 -184 486 -435 551 -43 11 -103 15
-215 13 -121 -1 -140 -3 -85 -8z"/>
<path d="M1360 3191 c0 -6 4 -13 10 -16 6 -3 7 1 4 9 -7 18 -14 21 -14 7z"/>
</g>
</svg>
